<svg xmlns="http://www.w3.org/2000/svg" xml:space="preserve" width="500" height="500" version="1.1" style="shape-rendering:geometricPrecision; text-rendering:geometricPrecision; image-rendering:optimizeQuality; fill-rule:evenodd; clip-rule:evenodd" viewBox="3990 5400 1400 4800" xmlns:xlink="http://www.w3.org/1000/xlink" xmlns:xodm="http://www.corel.com/coreldraw/odm/2003">
  <defs>
    <style type="text/css">
      <![CDATA[
    .str1 {stroke:#2DA1BE;stroke-width:172.65;stroke-miterlimit:22.9256}
    .str0 {stroke:#EF7F30;stroke-width:115.09;stroke-miterlimit:22.9256}
    .fil1 {fill:none}
    .fil11 {fill:#2B2A29}
    .fil2 {fill:#EF7F30}
    .fil8 {fill:#EF7F30}
    .fil4 {fill:#2DA1BE}
    .fil10 {fill:#2DA1BE}
    .fil0 {fill:#1D4789}
    .fil6 {fill:#1D4789}
    .fil12 {fill:#2B2A29;fill-rule:nonzero}
    .fil7 {fill:#EF7F30;fill-rule:nonzero}
    .fil9 {fill:#2DA1BE;fill-rule:nonzero}
    .fil3 {fill:#1D4789;fill-rule:nonzero}
    .fil5 {fill:#1D4789;fill-rule:nonzero}
   ]]>
    </style>
  </defs>
  <g id="Слой_x0020_1">
    <metadata id="CorelCorpID_0Corel-Layer"/>
    <path class="fil0" d="M3595.51 6127.9l477.65 -214.46c32.47,-14.58 64.85,3.65 85.57,32.54l189.88 264.86 -713.86 320.53 -71.78 -317.89c-7.85,-34.74 0.07,-70.99 32.54,-85.58z"/>
    <path class="fil0" d="M5263.93 5911.03l482.41 203.49c32.81,13.83 41.51,49.96 34.49,84.81l-64.49 319.45 -720.99 -304.13 183.78 -269.13c20.08,-29.42 52,-48.33 84.81,-34.49z"/>
    <path class="fil0" d="M2816.45 8922.16l-188.98 -488.28c-12.85,-33.2 7.06,-64.57 37,-83.74l274.51 -175.66 282.44 729.77 -321.24 54.92c-35.11,6 -70.89,-3.81 -83.73,-37.01z"/>
    <path class="fil0" d="M6727.77 8429l-181.56 491.1c-12.34,33.39 -48.04,43.72 -83.16,38.27l-322.03 -50.04 271.35 -733.97 277.14 171.47c30.29,18.74 50.61,49.78 38.27,83.16z"/>
    <path class="fil0" d="M6474.67 6832.73l219.66 475.28c14.93,32.32 -2.95,64.89 -31.6,85.93l-262.78 192.77 -328.28 -710.34 317.09 -75.24c34.65,-8.22 70.98,-0.71 85.92,31.6z"/>
    <path class="fil0" d="M2664.87 7314.71l212.03 -478.72c14.41,-32.56 50.68,-40.62 85.4,-32.97l318.26 70.15 -316.89 715.49 -265.83 -188.54c-29.05,-20.6 -47.39,-52.84 -32.97,-85.4z"/>
    <polyline class="fil1 str0" points="6113.64,8782.7 5811.17,8480.25 5811.17,7835.69 "/>
    <circle class="fil2" cx="5811.17" cy="7835.69" r="112.86"/>
    <circle class="fil2" cx="3550.3" cy="7603.83" r="112.86"/>
    <circle class="fil2" cx="5501.92" cy="7401.95" r="112.86"/>
    <polyline class="fil1 str1" points="3883.78,6460.84 5185.13,7669.37 5188.86,9140.39 5508.2,9428.75 "/>
    <polyline class="fil1 str0" points="5501.92,7401.94 5199.06,7120.68 5199.06,6685.6 5513.5,6371.16 "/>
    <polyline class="fil1 str1" points="4678.8,9566.24 4678.8,6625.78 4370.02,6321.11 "/>
    <polyline class="fil1 str1" points="3491.1,6654.21 4041.22,7171.83 4041.22,7519.94 4181.8,7650.39 4181.8,9115.71 3857.97,9416.02 "/>
    <polyline class="fil1 str0" points="3553.09,7601.03 3553.09,7949.14 3693.67,8079.59 3693.67,8608.18 3369.84,8908.49 "/>
    <path class="fil3" d="M3566.32 9049.94c42.46,42.46 42.46,111.32 0,153.78 -42.46,42.46 -111.32,42.46 -153.78,0 -349.67,-349.67 -524.52,-807.99 -524.52,-1266.26 0,-458.28 174.85,-916.6 524.52,-1266.26 349.67,-349.67 807.99,-524.52 1266.26,-524.52 458.28,0 916.6,174.85 1266.26,524.52 349.67,349.67 524.52,807.99 524.52,1266.26 0,458.28 -174.85,916.6 -524.52,1266.26 -42.46,42.46 -111.32,42.46 -153.78,0 -42.46,-42.46 -42.46,-111.32 0,-153.78 307.19,-307.19 460.79,-709.84 460.79,-1112.49 0,-402.65 -153.6,-805.3 -460.79,-1112.49 -307.19,-307.19 -709.84,-460.79 -1112.49,-460.79 -402.65,0 -805.3,153.6 -1112.49,460.79 -307.19,307.19 -460.79,709.84 -460.79,1112.49 0,402.65 153.6,805.3 460.79,1112.49z"/>
    <circle class="fil4" cx="4678.8" cy="9566.24" r="190.32"/>
    <circle class="fil4" cx="5494.32" cy="9431.83" r="190.32"/>
    <circle class="fil4" cx="3841.54" cy="9431.83" r="190.32"/>
  </g>
</svg>
